<svg width="256" height="256" viewBox="0 0 256 256" fill="none" xmlns="http://www.w3.org/2000/svg">
<path d="M198.914 31.5206C218.401 31.8692 229.385 43.9073 233.286 60.843C235.251 69.3696 235.678 78.3221 236.134 87.1162C237.192 107.563 237.963 128.03 238.618 148.489C238.989 159.952 238.902 171.436 238.998 182.911C239.195 206.11 221.672 218.523 206.269 222.729C200.916 224.238 195.404 225.098 189.848 225.292C157.422 226.088 124.989 226.978 92.5567 227C75.2596 227.013 58.0766 224.252 41.1562 220.575C28.1683 217.753 18.1592 205.648 16.608 191.647C16.1315 187.018 15.9347 182.366 16.0189 177.714C16.1896 161.737 16.673 145.763 16.7417 129.786C16.8224 111.175 16.6405 92.5616 16.4633 73.9503C16.4151 68.8459 16.0867 63.885 17.931 58.8449C23.076 44.7871 33.1602 37.0202 47.5156 34.5691C95.019 26.4505 146.42 28.8624 198.914 31.5206Z" fill="#5089FB"/>
<path d="M66.3963 172.494C70.2174 134.056 96.3167 72.0719 127.766 72.0721C159.215 72.0722 185.315 134.056 189.136 172.494C192.979 211.17 156.481 151.234 127.766 151.234C99.0517 151.234 62.9065 207.619 66.3963 172.494Z" fill="#DEEBFF"/>
</svg>
